<svg width="24" height="24" viewBox="0 0 24 24" fill="none" xmlns="http://www.w3.org/2000/svg">
<path d="M20.2482 3.75161C18.334 1.82486 15.8075 0.62636 13.1043 0.362727C10.4011 0.0990938 7.69063 0.786852 5.44018 2.30743C3.18972 3.82801 1.5403 6.08612 0.776285 8.69246C0.0122685 11.2988 0.181532 14.09 1.25489 16.5849C1.36677 16.8168 1.40347 17.0779 1.35989 17.3316L0.333227 22.2666C0.293673 22.4558 0.30175 22.6519 0.356733 22.8372C0.411715 23.0225 0.511881 23.1913 0.648227 23.3283C0.759999 23.4392 0.89308 23.5264 1.03945 23.5846C1.18582 23.6427 1.34245 23.6706 1.49989 23.6666H1.73323L6.72656 22.6633C6.98035 22.6328 7.2377 22.669 7.47323 22.7683C9.96814 23.8416 12.7594 24.0109 15.3657 23.2469C17.9721 22.4829 20.2302 20.8335 21.7507 18.583C23.2713 16.3325 23.9591 13.6221 23.6954 10.9189C23.4318 8.2157 22.2333 5.6892 20.3066 3.77495L20.2482 3.75161ZM7.33323 13.1666C7.10248 13.1666 6.87692 13.0982 6.68506 12.97C6.4932 12.8418 6.34367 12.6596 6.25537 12.4464C6.16707 12.2332 6.14396 11.9987 6.18898 11.7723C6.23399 11.546 6.34511 11.3382 6.50827 11.175C6.67143 11.0118 6.87931 10.9007 7.10562 10.8557C7.33193 10.8107 7.56651 10.8338 7.77969 10.9221C7.99287 11.0104 8.17508 11.1599 8.30327 11.3518C8.43147 11.5436 8.49989 11.7692 8.49989 11.9999C8.49989 12.3094 8.37698 12.6061 8.15818 12.8249C7.93939 13.0437 7.64265 13.1666 7.33323 13.1666ZM11.9999 13.1666C11.7691 13.1666 11.5436 13.0982 11.3517 12.97C11.1599 12.8418 11.0103 12.6596 10.922 12.4464C10.8337 12.2332 10.8106 11.9987 10.8556 11.7723C10.9007 11.546 11.0118 11.3382 11.1749 11.175C11.3381 11.0118 11.546 10.9007 11.7723 10.8557C11.9986 10.8107 12.2332 10.8338 12.4464 10.9221C12.6595 11.0104 12.8417 11.1599 12.9699 11.3518C13.0981 11.5436 13.1666 11.7692 13.1666 11.9999C13.1666 12.3094 13.0436 12.6061 12.8249 12.8249C12.6061 13.0437 12.3093 13.1666 11.9999 13.1666ZM16.6666 13.1666C16.4358 13.1666 16.2103 13.0982 16.0184 12.97C15.8265 12.8418 15.677 12.6596 15.5887 12.4464C15.5004 12.2332 15.4773 11.9987 15.5223 11.7723C15.5673 11.546 15.6784 11.3382 15.8416 11.175C16.0048 11.0118 16.2126 10.9007 16.439 10.8557C16.6653 10.8107 16.8998 10.8338 17.113 10.9221C17.3262 11.0104 17.5084 11.1599 17.6366 11.3518C17.7648 11.5436 17.8332 11.7692 17.8332 11.9999C17.8332 12.3094 17.7103 12.6061 17.4915 12.8249C17.2727 13.0437 16.976 13.1666 16.6666 13.1666Z" fill="#5A5A5A"/>
</svg>
