<svg width="32" height="33" viewBox="0 0 32 33" fill="none" xmlns="http://www.w3.org/2000/svg">
<path d="M27.1408 27.2248C30.2572 24.3635 32 20.2298 32 15.6342C32 6.99793 25.8453 0 16 0C6.15474 0 0 7.00083 0 15.6342C0 24.2705 6.15474 31.2684 16 31.2684C18.2189 31.2684 20.2474 30.9111 22.0624 30.2604L23.785 32.7412C23.8566 32.8447 23.9585 32.923 24.0765 32.9652C24.1945 33.0073 24.3226 33.0113 24.4429 32.9765L29.2069 31.5967C29.3915 31.5415 29.5416 31.4021 29.6079 31.2162C29.6714 31.0331 29.6454 30.8298 29.5329 30.6671L27.1408 27.2248ZM16 23.7563C10.8869 23.7563 7.68693 20.1194 7.68693 15.6342C7.68693 11.149 10.884 7.51209 16 7.51209C21.116 7.51209 24.3131 11.149 24.3131 15.6342C24.3131 17.566 23.7158 19.3409 22.6337 20.7352L20.5389 17.7199C20.4671 17.6167 20.3652 17.5386 20.2473 17.4965C20.1294 17.4543 20.0013 17.4502 19.881 17.4846L15.1142 18.8645C14.9295 18.9197 14.7794 19.0591 14.7131 19.245C14.6496 19.428 14.6756 19.6314 14.7881 19.7941L17.4629 23.6431C16.9955 23.7128 16.5107 23.7563 16 23.7563Z" fill="#FFDE32"/>
</svg>
