<svg width="24" height="24" viewBox="0 0 24 24" fill="none" xmlns="http://www.w3.org/2000/svg">
<path d="M21.435 18.8568C20.8453 18.2919 20.2713 17.7109 19.7137 17.1143C19.2453 16.6383 18.9633 16.2921 18.9633 16.2921L15.4376 14.6087C16.8491 13.008 17.6281 10.9474 17.6285 8.81335C17.6285 3.95467 13.6747 0 8.81427 0C3.95383 0 0 3.95467 0 8.81335C0 13.672 3.95383 17.6267 8.81427 17.6267C11.0342 17.6267 13.0577 16.7957 14.6103 15.4372L16.2938 18.9625C16.2938 18.9625 16.6401 19.2446 17.1161 19.7129C17.6034 20.17 18.2443 20.7882 18.8588 21.4341L20.5687 23.1867L21.3293 24L24 21.3296L23.1866 20.5691C22.7093 20.1007 22.0722 19.4788 21.435 18.8568ZM8.81427 15.1086C5.34271 15.1086 2.51836 12.2845 2.51836 8.81335C2.51836 5.34215 5.34271 2.5181 8.81427 2.5181C12.2858 2.5181 15.1102 5.34215 15.1102 8.81335C15.1102 12.2845 12.2858 15.1086 8.81427 15.1086Z" fill="black"/>
</svg>
